<mxfile host="app.diagrams.net" modified="2021-12-26T11:13:50.958Z" agent="5.0 (Macintosh; Intel Mac OS X 10_15_7) AppleWebKit/537.36 (KHTML, like Gecko) Chrome/96.0.4664.110 Safari/537.36" etag="aonDiZ1u-i3o5JJovl56" version="16.1.0" type="github">
  <diagram id="Xr7dysLYfKWOCMDM9jE1" name="Page-1">
    <mxGraphModel dx="944" dy="525" grid="1" gridSize="10" guides="1" tooltips="1" connect="1" arrows="1" fold="1" page="1" pageScale="1" pageWidth="827" pageHeight="1169" math="0" shadow="0">
      <root>
        <mxCell id="0" />
        <mxCell id="1" parent="0" />
        <mxCell id="zvjEyWDYDSyTZOTAAnWv-1" value="Admin" style="shape=umlActor;html=1;verticalLabelPosition=bottom;verticalAlign=top;align=center;" vertex="1" parent="1">
          <mxGeometry x="70" y="120" width="30" height="60" as="geometry" />
        </mxCell>
        <mxCell id="zvjEyWDYDSyTZOTAAnWv-2" value="Inventory Manager" style="shape=umlActor;html=1;verticalLabelPosition=bottom;verticalAlign=top;align=center;" vertex="1" parent="1">
          <mxGeometry x="70" y="230" width="30" height="60" as="geometry" />
        </mxCell>
        <mxCell id="zvjEyWDYDSyTZOTAAnWv-3" value="Notification Service" style="shape=umlActor;html=1;verticalLabelPosition=bottom;verticalAlign=top;align=center;" vertex="1" parent="1">
          <mxGeometry x="580" y="170" width="30" height="60" as="geometry" />
        </mxCell>
        <mxCell id="zvjEyWDYDSyTZOTAAnWv-7" value="Login/Logout" style="ellipse;whiteSpace=wrap;html=1;" vertex="1" parent="1">
          <mxGeometry x="180" y="130" width="140" height="70" as="geometry" />
        </mxCell>
        <mxCell id="zvjEyWDYDSyTZOTAAnWv-8" value="Place Order" style="ellipse;whiteSpace=wrap;html=1;" vertex="1" parent="1">
          <mxGeometry x="230" y="350" width="140" height="70" as="geometry" />
        </mxCell>
        <mxCell id="zvjEyWDYDSyTZOTAAnWv-9" value="Send Notification" style="ellipse;whiteSpace=wrap;html=1;" vertex="1" parent="1">
          <mxGeometry x="360" y="180" width="110" height="60" as="geometry" />
        </mxCell>
        <mxCell id="zvjEyWDYDSyTZOTAAnWv-12" value="" style="edgeStyle=none;html=1;endArrow=none;verticalAlign=bottom;rounded=0;" edge="1" parent="1">
          <mxGeometry width="160" relative="1" as="geometry">
            <mxPoint x="440" y="199.5" as="sourcePoint" />
            <mxPoint x="600" y="199.5" as="targetPoint" />
          </mxGeometry>
        </mxCell>
        <mxCell id="zvjEyWDYDSyTZOTAAnWv-13" value="" style="edgeStyle=none;html=1;endArrow=none;verticalAlign=bottom;rounded=0;" edge="1" parent="1">
          <mxGeometry width="160" relative="1" as="geometry">
            <mxPoint x="90" y="149.5" as="sourcePoint" />
            <mxPoint x="250" y="149.5" as="targetPoint" />
          </mxGeometry>
        </mxCell>
        <mxCell id="zvjEyWDYDSyTZOTAAnWv-14" value="" style="edgeStyle=none;html=1;endArrow=none;verticalAlign=bottom;rounded=0;exitX=0.207;exitY=0.943;exitDx=0;exitDy=0;exitPerimeter=0;" edge="1" parent="1" source="zvjEyWDYDSyTZOTAAnWv-7" target="zvjEyWDYDSyTZOTAAnWv-8">
          <mxGeometry width="160" relative="1" as="geometry">
            <mxPoint x="330" y="360" as="sourcePoint" />
            <mxPoint x="490" y="360" as="targetPoint" />
            <Array as="points">
              <mxPoint x="90" y="250" />
            </Array>
          </mxGeometry>
        </mxCell>
      </root>
    </mxGraphModel>
  </diagram>
</mxfile>
